<svg width="57" height="60" viewBox="0 0 57 60" fill="none" xmlns="http://www.w3.org/2000/svg">
<g clip-path="url(#clip0_110343_1654)">
<mask id="mask0_110343_1654" style="mask-type:luminance" maskUnits="userSpaceOnUse" x="0" y="0" width="58" height="61">
<path d="M0 0H57.237V60.2379H0V0Z" fill="white"/>
</mask>
<g mask="url(#mask0_110343_1654)">
<path d="M57.0006 10.0037L54.9423 42.1441L35.2633 -0.00195312L57.0006 10.0037ZM43.3702 51.5627L28.5006 60.0001L13.6308 51.5627L16.6551 44.2739H40.3459L43.3702 51.5627ZM28.5006 15.9968L36.2923 34.8347H20.7087L28.5006 15.9968ZM2.03815 42.1441L0.000976562 10.0037L21.7382 8.88365e-05L2.03815 42.1441Z" fill="#B5E93B"/>
<path d="M57.0006 10.0037L54.9423 42.1441L35.2633 -0.00195312L57.0006 10.0037ZM43.3702 51.5627L28.5006 60.0001L13.6308 51.5627L16.6551 44.2739H40.3459L43.3702 51.5627ZM28.5006 15.9968L36.2923 34.8347H20.7087L28.5006 15.9968ZM2.03815 42.1441L0.000976562 10.0037L21.7382 8.88365e-05L2.03815 42.1441Z" fill="#B5E93B"/>
</g>
</g>
<defs>
<clipPath id="clip0_110343_1654">
<rect width="57" height="60" fill="white"/>
</clipPath>
</defs>
</svg>
