<svg width="60" height="60" viewBox="0 0 60 60" fill="none" xmlns="http://www.w3.org/2000/svg">
<g clip-path="url(#clip0_110343_1685)">
<path d="M34.5043 59.003C32.9712 60.9327 29.8621 59.8767 29.8246 57.4109L29.2832 21.3616H53.5234C57.9136 21.3616 60.3633 26.4326 57.6349 29.8687L34.5043 59.003Z" fill="url(#paint0_linear_110343_1685)"/>
<path d="M34.5043 59.003C32.9712 60.9327 29.8621 59.8767 29.8246 57.4109L29.2832 21.3616H53.5234C57.9136 21.3616 60.3633 26.4326 57.6349 29.8687L34.5043 59.003Z" fill="url(#paint1_linear_110343_1685)" fill-opacity="0.2"/>
<path d="M24.6469 0.996889C26.18 -0.932889 29.2891 0.123128 29.3266 2.58895L29.5625 38.6383H5.6279C1.23766 38.6383 -1.21209 33.5672 1.5164 30.1312L24.6469 0.996889Z" fill="#B5E93B"/>
</g>
<defs>
<linearGradient id="paint0_linear_110343_1685" x1="27.3427" y1="34.0016" x2="48.8865" y2="43.034" gradientUnits="userSpaceOnUse">
<stop stop-color="#99CD1F"/>
<stop offset="1" stop-color="#B5E93B"/>
</linearGradient>
<linearGradient id="paint1_linear_110343_1685" x1="28.3719" y1="11.6912" x2="38.1977" y2="30.1849" gradientUnits="userSpaceOnUse">
<stop/>
<stop offset="1" stop-opacity="0"/>
</linearGradient>
<clipPath id="clip0_110343_1685">
<rect width="58.4187" height="60" fill="white" transform="translate(0.369141)"/>
</clipPath>
</defs>
</svg>
