<svg width="112" height="37" viewBox="0 0 112 37" fill="none" xmlns="http://www.w3.org/2000/svg">
<path d="M109.5 20.9099C110.881 20.9099 112 19.7906 112 18.4099C112 17.0292 110.881 15.9099 109.5 15.9099L109.5 20.9099ZM0.732231 16.6422C-0.24408 17.6185 -0.24408 19.2014 0.732231 20.1777L16.6421 36.0876C17.6184 37.0639 19.2014 37.0639 20.1777 36.0876C21.154 35.1113 21.154 33.5284 20.1777 32.5521L6.03554 18.4099L20.1777 4.26778C21.154 3.29147 21.154 1.70856 20.1777 0.73225C19.2014 -0.24406 17.6184 -0.24406 16.6421 0.732251L0.732231 16.6422ZM109.5 15.9099L2.5 15.9099L2.5 20.9099L109.5 20.9099L109.5 15.9099Z" fill="#B5E93B"/>
</svg>
