<svg width="112" height="37" viewBox="0 0 112 37" fill="none" xmlns="http://www.w3.org/2000/svg">
<path d="M2.5 15.9099C1.11929 15.9099 -1.20706e-07 17.0292 0 18.4099C1.20706e-07 19.7906 1.11929 20.9099 2.5 20.9099L2.5 15.9099ZM111.268 20.1777C112.244 19.2014 112.244 17.6184 111.268 16.6421L95.3579 0.732234C94.3816 -0.244076 92.7986 -0.244076 91.8223 0.732235C90.846 1.70855 90.846 3.29146 91.8223 4.26777L105.964 18.4099L91.8223 32.552C90.846 33.5284 90.846 35.1113 91.8223 36.0876C92.7986 37.0639 94.3816 37.0639 95.3579 36.0876L111.268 20.1777ZM2.5 20.9099L109.5 20.9099L109.5 15.9099L2.5 15.9099L2.5 20.9099Z" fill="#B5E93B"/>
</svg>
